<?xml version="1.0" standalone="no"?>
<!DOCTYPE svg PUBLIC "-//W3C//DTD SVG 1.1//EN" "http://www.w3.org/Graphics/SVG/1.1/DTD/svg11.dtd" >
<!--
2013-9-30: Created.
-->
<svg>
<metadata>
Created by iconfont
</metadata>
<defs>

<font id="iconfont" horiz-adv-x="1024" >
  <font-face
    font-family="iconfont"
    font-weight="500"
    font-stretch="normal"
    units-per-em="1024"
    ascent="896"
    descent="-128"
  />
    <missing-glyph />
    
    <glyph glyph-name="x" unicode="x" horiz-adv-x="1001"
d="M281 543q-27 -1 -53 -1h-83q-18 0 -36.5 -6t-32.5 -18.5t-23 -32t-9 -45.5v-76h912v41q0 16 -0.5 30t-0.5 18q0 13 -5 29t-17 29.5t-31.5 22.5t-49.5 9h-133v-97h-438v97zM955 310v-52q0 -23 0.5 -52t0.5 -58t-10.5 -47.5t-26 -30t-33 -16t-31.5 -4.5q-14 -1 -29.5 -0.5
t-29.5 0.5h-32l-45 128h-439l-44 -128h-29h-34q-20 0 -45 1q-25 0 -41 9.5t-25.5 23t-13.5 29.5t-4 30v167h911zM163 247q-12 0 -21 -8.5t-9 -21.5t9 -21.5t21 -8.5q13 0 22 8.5t9 21.5t-9 21.5t-22 8.5zM316 123q-8 -26 -14 -48q-5 -19 -10.5 -37t-7.5 -25t-3 -15t1 -14.5
t9.5 -10.5t21.5 -4h37h67h81h80h64h36q23 0 34 12t2 38q-5 13 -9.5 30.5t-9.5 34.5q-5 19 -11 39h-368zM336 498v228q0 11 2.5 23t10 21.5t20.5 15.5t34 6h188q31 0 51.5 -14.5t20.5 -52.5v-227h-327z" />
    

    
    <glyph glyph-name="like" unicode="&#58888;" d="M893.088 194.036c0 26.926-9.065 47.461-26.847 59.39 10.806 6.218 26.657 37.019 26.657 64.167-1.060 44.882-43.616 78.168-107.832 78.168l-170.257-0.016c29.125 81.032 23.651 190.302-12.925 248.632-21.99 35.090-48.473 42.967-66.793 42.967-61.778 0-63.803-60.798-63.803-81.474 0-69.135-9.793-100.681-21.974-129.758-9.651-18.794-68.818-80.683-129.236-80.683h-113.225c-43.712 0-75.432-37.368-75.368-90.571l29.394-316.485c3.528-48.727 26.974-78.248 74.023-78.248 0 0 23.43-0.19 40.958-0.19 8.954 0 17.307 0.063 22.243 0.19 14.491 0.474 26.452 9.967 36.988 17.94 7.467 5.632 13.416 10.489 18.763 10.489 2.421 0 16.137-8.052 33.001-15.346 17.181-7.467 44.455-13.59 70.527-13.59h236.861c79.387 0 117.482 30.375 117.513 81.032 0 14.95-3.385 23.842-11.549 35.438 31.895 7.815 60.149 28.271 60.149 63.566 0 13.084-6.027 34.14-14.286 39.709 15.566 4.082 47.048 32.447 47.017 64.673zM296.933-57.998c-14.191-0.458-65.085 0-65.401 0-18.225 0-34.425 17.56-38.539 41.181l-29.394 328.952c0 24.601 19.396 51.59 45.278 51.59v-0.158l111.201-0.348c1.914 0 3.781 0.237 5.679 0.316v-402.421c-5.141-3.686-9.967-7.23-13.4-9.809-4.7-3.545-12.578-8.97-15.426-9.303zM816.187 150.91c0 0-4.255 0-4.271 0l0.396-29.363c3.433-1.329 16.184-5.252 16.216-30.755-0.032-27.353-35.184-38.348-64.832-38.333h0.095l-0.507-27.986c12.023-2.768 16.405-13.51 16.39-30.723 0-30.090-23.984-51.748-86.173-51.748h-245.229c-11.722 0-35.564 6.977-49.296 13.748-12.957 6.376-33.634 18.304-40.848 22.323v390.794c61.668 17.45 112.546 71.761 125.376 96.836 13.97 33.191 20.993 67.853 20.993 143.933 0 37.81 13.605 42.873 28.065 42.873 12.799 0 33.127-14.396 43.411-30.833 30.439-48.521 37.589-153.093-0.285-231.388l-6.533-27.1 217.372 0.064c37.004-2.088 74.213-17.529 74.213-45.404l-0.253-8.733c0.064-0.348-0.949-24.173-13.321-34.678-10.378-8.797-18.81-9.112-18.81-9.112l-0.237-28.904c0 0 12.546-1.724 19.079-6.312 9.872-6.913 14.317-19.997 13.827-34.267-0.648-18.083-28.002-44.931-44.835-44.931z"  horiz-adv-x="1024" />

    
    <glyph glyph-name="qiuyi" unicode="&#58884;" d="M158.283925 658.665873l-59.12637 43.016506c-40.116243-55.129369-67.266604-117.119444-80.683367-184.239816l71.690114-14.342897C101.509449 559.78884 124.431275 612.12762 158.283925 658.665873zM186.518838 156.29889c-71.714486 78.550821-108.528329 180.315931-103.702681 286.553296l-73.042758 3.314586c-5.72741-125.734931 37.874023-246.193333 122.73718-339.160167 58.212422-63.744856 132.534707-110.22218 214.972855-134.386976l20.557747 70.166867C298.471427 63.173638 235.689263 102.436863 186.518838 156.29889zM567.903422 385.614642l51.692923-51.692923 81.572943 81.585129c31.878521 31.878521 49.438517 74.261356 49.450703 119.337292 0 45.088122-17.559996 87.483143-49.450703 119.361664-31.866335 31.878521-74.261356 49.438517-119.349478 49.438517s-87.458771-17.559996-119.349478-49.438517l-81.572943-81.585129 51.692923-51.692923 81.585129 81.585129c18.071807 18.059621 42.102557 28.015566 67.656555 28.015566 25.566184 0 49.572563-9.955945 67.656555-28.027752 18.059621-18.059621 28.027752-42.090371 28.027752-67.644369 0-25.553998-9.955945-49.584748-28.027752-67.656555L567.903422 385.614642zM446.908837 264.620057c-18.083993-18.083993-42.102557-28.027752-67.656555-28.027752-25.566184 0-49.572563 9.931573-67.656555 28.027752-18.071807 18.059621-28.027752 42.090371-28.027752 67.644369s9.955945 49.572563 28.027752 67.656555l81.585129 81.585129-51.705109 51.692923-81.572943-81.572943c-31.878521-31.890707-49.450703-74.273542-49.450703-119.361664s17.572182-87.470957 49.450703-119.349478c31.866335-31.878521 74.261356-49.438517 119.349478-49.438517 45.075936 0 87.470957 17.535624 119.349478 49.438517l81.572943 81.585129-51.692923 51.692923L446.908837 264.620057zM1014.726714-76.307077l-184.861301 184.861301c161.171758 177.793433 163.694256 453.172186-1.3039 633.926813C743.686169 835.423498 627.687835 889.772965 501.952904 895.488189 376.339833 901.264343 255.783943 857.650724 162.817109 772.751009l49.292285-53.996073c78.538635 71.714486 180.437791 108.577073 286.528924 103.702681C604.863497 817.619783 702.850954 771.703014 774.553254 693.16438c148.010901-162.122264 136.543895-414.420773-25.590556-562.431674-44.137616-40.299032-95.245612-69.496638-151.934786-86.800728l21.349835-69.910961c58.12712 17.742785 111.257988 46.063001 158.356797 84.266045l186.287061-186.287061L1014.726714-76.307077z"  horiz-adv-x="1024" />

    
    <glyph glyph-name="comment21" unicode="&#59150;" d="M512 64C474.624 64 438.528 68.352 403.84 75.744L253.184-14.816 255.2 133.632C139.712 203.072 64 317.888 64 448 64 660.064 264.576 832 512 832 759.424 832 960 660.064 960 448 960 235.904 759.424 64 512 64L512 64ZM512 896C229.248 896 0 695.392 0 448 0 306.592 75.04 180.672 192 98.592L192-128 416.288 8.096C447.328 2.976 479.264 0 512 0 794.752 0 1024 200.576 1024 448 1024 695.392 794.752 896 512 896L512 896ZM736 544 288 544C270.336 544 256 529.664 256 512 256 494.304 270.336 480 288 480L736 480C753.664 480 768 494.304 768 512 768 529.664 753.664 544 736 544L736 544ZM672 352 352 352C334.336 352 320 337.696 320 320 320 302.304 334.336 288 352 288L672 288C689.664 288 704 302.304 704 320 704 337.696 689.664 352 672 352L672 352Z"  horiz-adv-x="1024" />

    
    <glyph glyph-name="09" unicode="&#58914;" d="M768.601 191.975c-35.541 0-67.82-14.804-90.999-38.388L369.062 325.386c9.1 17.558 14.594 37.183 14.594 58.356 0 12.566-2.404 24.444-5.666 35.978l304.075 189.356c22.664-20.485 52.368-33.223 84.99-33.223 70.396 0 127.742 57.495 127.742 128.074S837.451 832 767.056 832s-127.742-57.495-127.742-128.074c0-14.632 2.919-28.403 7.383-41.486L345.368 474.977c-23.007 22.723-54.6 37.011-89.626 37.011C185.347 511.988 128 454.492 128 383.914S185.347 255.84 255.742 255.84c25.583 0 49.449 7.746 69.366 20.829l320.558-178.511c-3.091-11.017-5.151-22.206-5.151-34.084 0-70.578 57.347-128.074 127.742-128.074S896-6.505 896 64.074 838.997 191.975 768.601 191.975z"  horiz-adv-x="1024" />

    
    <glyph glyph-name="lanzi50" unicode="&#59002;" d="M706.96367749 536.11342507c-13.74488955 0-24.85513482 11.13510039-24.85513482 24.85513481 0 97.23328739-79.11389411 176.32232638-176.32232637 176.32232638-97.23328739 0-176.32232638-79.08903899-176.32232638-176.32232638 0-13.72003442-11.13510039-24.85513482-24.85513482-24.85513481s-24.85513482 11.13510039-24.85513481 24.85513481c0 124.62364596 101.40895005 226.032596 226.03259601 226.03259601 124.6485011 0 226.032596-101.40895005 226.032596-226.03259601C731.8188123 547.22367033 720.6837119 536.11342507 706.96367749 536.11342507zM773.62514907-36.44946053000001L237.94728353-36.44946053000001c-44.06815403 0-82.29535137 28.33485369-95.12060094 70.4643072l-128.60046753 422.53729186c-9.27096528 30.44754015-3.72827022 62.56037433 15.21134251 88.11145292s48.06983073 40.24046326 79.88440329 40.24046326l792.92851087 0c31.81457257 0 60.91993543-14.66452955 79.85954816-40.21560813 18.96446786-25.57593373 24.50716293-57.6887679 15.26105277-88.13630805l-128.62532267-422.53729186C855.92050043-8.139461969999957 817.69330309-36.44946053000001 773.62514907-36.44946053000001zM109.32196086 535.19378508c-15.90728628 0-30.47239529-7.33226477-39.94220164-20.1326592-9.46980637-12.7755393-12.25358146-28.85681152-7.60567125-44.04329889l128.60046753-422.53729185c6.41262478-21.07715433 25.52622346-35.21972603 47.57272803-35.21972604l535.70272066 0c22.02164944 0 41.13524812 14.14257171 47.54787291 35.21972604l128.62532267 422.53729185c4.64791021 15.23619764 1.86413511 31.29261473-7.63052639 44.06815402-9.46980637 12.7755393-24.03491536 20.10780406-39.91734652 20.10780407L109.32196086 535.19378508zM309.28152045 342.83989675c-41.11039298 0-74.56540445 33.45501147-74.56540445 74.56540444s33.45501147 74.56540445 74.56540445 74.56540444 74.56540445-33.45501147 74.56540445-74.56540444S350.39191344 342.83989675 309.28152045 342.83989675zM309.28152045 467.11557083c-27.41521371 0-49.71026963-22.29505593-49.71026962-49.71026964s22.29505593-49.71026963 49.71026962-49.71026963 49.71026963 22.29505593 49.71026963 49.71026963S336.69673415 467.11557083 309.28152045 467.11557083zM706.96367749 342.83989675c-41.11039298 0-74.56540445 33.45501147-74.56540444 74.56540444s33.45501147 74.56540445 74.56540444 74.56540444 74.56540445-33.45501147 74.56540444-74.56540444S748.07407047 342.83989675 706.96367749 342.83989675zM706.96367749 467.11557083c-27.41521371 0-49.71026963-22.29505593-49.71026963-49.71026964s22.29505593-49.71026963 49.71026963-49.71026963 49.71026963 22.29505593 49.71026962 49.71026963S734.35403605 467.11557083 706.96367749 467.11557083z"  horiz-adv-x="1024" />

    
    <glyph glyph-name="wode" unicode="&#59003;" d="M960.053977-128l-0.938726 7.791427C933.074988 95.116424 732.506765 270.320267 512 270.320267c-220.506765 0-421.074988-175.185068-447.096476-390.52884l-0.938726-7.791427L5.087896-128l1.051373 9.819075C26.509626 71.68582 159.395695 242.815592 336.814932 307.606468l5.407062 1.990099-4.843827 3.116571c-90.699718 58.332441-144.84544 155.509369-144.84544 259.989586C192.532727 744.921418 341.827729 896 512 896c170.191045 0 319.467273-151.078582 319.467273-323.334825 0-104.461443-54.145723-201.63837-144.84544-259.989586l-4.843827-3.116571 5.407062-1.990099c177.419237-64.809651 310.305306-235.920648 330.675663-425.787393L1018.912104-128 960.053977-128zM512 836.353342c-131.515529 0-260.590371-130.614352-260.590371-263.669392 0-138.912691 137.5797-242.717025 260.590371-242.717025 123.010671 0 260.590371 103.78556 260.590371 242.717025C772.590371 705.73899 643.515529 836.353342 512 836.353342z"  horiz-adv-x="1024" />

    
    <glyph glyph-name="leimupinleifenleileibie" unicode="&#59179;" d="M338.92578125 349.35351562000005L200.49804687 349.35351562000005c-76.11328125 0-138.42773438-62.31445313-138.42773437-138.42773437l0-138.42773438c0-76.11328125 62.31445313-138.42773438 138.42773438-138.42773437l138.42773437 0c76.11328125 0 138.42773438 62.31445313 138.42773438 138.42773438L477.35351562 210.92578125C477.35351562 287.0390625 415.0390625 349.35351562000005 338.92578125 349.35351562000005zM408.18359375 72.49804687000005c0-38.05664063-31.11328125-69.2578125-69.2578125-69.25781249L200.49804687 3.240234370000053c-38.05664063 0-69.2578125 31.11328125-69.25781249 69.25781251L131.24023437 210.92578125c0 38.05664063 31.11328125 69.2578125 69.25781251 69.2578125l138.42773437 0c38.05664063 0 69.2578125-31.11328125 69.2578125-69.2578125L408.18359375 72.49804687000005zM823.5546875 833.98242188L685.0390625 833.98242188c-76.11328125 0-138.42773438-62.31445313-138.42773438-138.42773438l1e-8-138.42773438c0-76.11328125 62.31445313-138.42773438 138.42773437-138.42773437l138.42773438 0c76.11328125 0 138.42773438 62.31445313 138.42773437 138.42773438L961.89453125 695.5546875C961.98242188 771.66796875 899.66796875 833.98242188 823.5546875 833.98242188zM892.8125 557.0390625c0-38.05664063-31.11328125-69.2578125-69.2578125-69.2578125L685.0390625 487.78125c-38.05664063 0-69.2578125 31.11328125-69.2578125 69.2578125L615.78125 695.5546875c0 38.05664063 31.11328125 69.2578125 69.2578125 69.2578125l138.42773438 0c38.05664063 0 69.2578125-31.11328125 69.25781249-69.2578125L892.72460938 557.0390625zM823.5546875 349.35351562000005L685.0390625 349.35351562000005c-76.11328125 0-138.42773438-62.31445313-138.42773438-138.42773437l1e-8-138.42773438c0-76.11328125 62.31445313-138.42773438 138.42773437-138.42773437l138.42773438 0c76.11328125 0 138.42773438 62.31445313 138.42773437 138.42773438L961.89453125 210.92578125C961.98242188 287.0390625 899.66796875 349.35351562000005 823.5546875 349.35351562000005zM892.8125 72.49804687000005c0-38.05664063-31.11328125-69.2578125-69.2578125-69.25781249L685.0390625 3.240234370000053c-38.05664063 0-69.2578125 31.11328125-69.2578125 69.25781251L615.78125 210.92578125c0 38.05664063 31.11328125 69.2578125 69.2578125 69.2578125l138.42773438 0c38.05664063 0 69.2578125-31.11328125 69.25781249-69.2578125L892.72460938 72.49804687000005zM338.92578125 833.98242188L200.49804687 833.98242188c-76.11328125 0-138.42773438-62.31445313-138.42773437-138.42773438l0-138.42773438c0-76.11328125 62.31445313-138.42773438 138.42773438-138.42773437l138.42773437 0c76.11328125 0 138.42773438 62.31445313 138.42773438 138.42773438L477.35351562 695.5546875C477.35351562 771.66796875 415.0390625 833.98242188 338.92578125 833.98242188zM408.18359375 557.0390625c0-38.05664063-31.11328125-69.2578125-69.2578125-69.2578125L200.49804687 487.78125c-38.05664063 0-69.2578125 31.11328125-69.25781249 69.2578125L131.24023437 695.5546875c0 38.05664063 31.11328125 69.2578125 69.25781251 69.2578125l138.42773437 0c38.05664063 0 69.2578125-31.11328125 69.2578125-69.2578125L408.18359375 557.0390625z"  horiz-adv-x="1024" />

    
    <glyph glyph-name="searchIcon" unicode="&#58933;" d="M822.838 473.010c0 224.047-182.29 406.316-406.315 406.316-224.024 0-406.315-182.269-406.315-406.315s182.292-406.292 406.315-406.292 406.315 182.247 406.315 406.291zM416.523 129.23c-189.571 0-343.804 154.188-343.804 343.783 0 189.572 154.233 343.805 343.804 343.805 189.574 0 343.805-154.233 343.805-343.805-0.001-189.595-154.232-343.783-343.805-343.783zM983.285 38.883l-169.283 174.567-44.885-43.464 169.594-174.966c5.905-5.861 9.145-13.718 9.145-22.11 0-8.347-3.24-16.248-9.145-22.11-12.12-12.163-32.009-12.208-44.528 0.356l-174.613 169.237-43.507-44.839 174.255-168.972c18.291-18.292 42.309-27.436 66.33-27.436 24.017 0 47.991 9.144 66.282 27.436 17.716 17.759 27.438 41.288 27.438 66.328 0 25.127-9.723 48.659-27.083 65.972zM239.869 649.864c-97.493-97.516-97.493-256.123 0-353.572l44.174 44.218c-73.076 73.076-73.076 192.035 0 265.156l-44.174 44.198z"  horiz-adv-x="1026" />

    
    <glyph glyph-name="lishi" unicode="&#58903;" d="M525.36832-60.61568c-220.11904 0-399.19616 179.07712-399.19616 399.19616h31.872c0-202.5472 164.78208-367.32928 367.32928-367.32928s367.32416 164.7872 367.32416 367.32928-164.78208 367.32416-367.32416 367.32416v31.872c220.11392 0 399.20128-179.08224 399.20128-399.19616-0.00512-220.11904-179.08736-399.19616-399.2064-399.19616zM529.84832 615.07072L344.92416 721.83808l184.92416 106.77248zM516.50048 309.1968c0-7.38816-8.07936-13.37856-18.05312-13.37856-9.97376 0-18.05312 5.9904-18.05312 13.37856V544.9472c0 7.38816 8.08448 13.37856 18.05312 13.37856 9.97376 0 18.05312-5.9904 18.05312-13.37856v-235.7504zM675.74784 156.29312c5.22752-5.22752 3.7376-15.17568-3.30752-22.23104-7.04512-7.05024-16.9984-8.5248-22.2208-3.3024l-166.70208 166.69696c-5.22752 5.22752-3.74784 15.17568 3.3024 22.22592 7.05024 7.05536 17.00352 8.52992 22.22592 3.30752l166.70208-166.69696z"  horiz-adv-x="1024" />

    
    <glyph glyph-name="xing" unicode="&#58887;" d="M802.25166222-125.65162667000004c-6.08028445 0-12.16056889 1.52917333-17.65831111 4.58752L510.03392 31.234275550000007 234.89194667-120.11747555c-12.19697778-6.73564445-27.19744-5.86183111-38.55701334 2.18453333-11.39598222 8.04636445-17.18499555 21.91815111-14.92764444 35.64430222l53.33902222 323.96629333L11.23214222 471.59978667c-9.39349333 9.68476445-12.70670222 23.81141333-8.48327111 36.62734222 4.18702222 12.85233778 15.14609778 22.31864889 28.47175111 24.61240889l176.43747556 30.25578667c20.06129778 3.34961778 38.66624-9.93962667 42.05226667-29.74606223 3.38602667-19.80643555-9.90321778-38.62983111-29.74606223-42.05226667l-108.28003555-18.56853333 188.12472888-193.51324444c8.04636445-8.30122667 11.68725333-19.91566222 9.8304-31.27523556l-44.16398222-268.15146667L492.59406222 104.74382221999997c10.95907555 6.04387555 24.28472889 6.04387555 35.20739556-0.07281777l226.60892444-125.68348445L711.15662222 247.24821333c-1.85685333 11.39598222 1.85685333 23.01041778 9.90321778 31.23882667L908.41998222 469.92497778l-256.75548444 39.61287111c-12.01493333 1.85685333-22.28224 9.57553778-27.45230223 20.57102222l-112.86755555 241.64579556L397.49404445 530.72782222c-8.59249778-18.20444445-30.29219555-25.95953778-48.49664-17.36704-18.16803555 8.59249778-25.95953778 30.29219555-17.36704 48.49664L478.57664 872.97137778c6.04387555 12.74311111 18.85980445 20.86229333 32.91363555 20.86229333 0 0 0.03640889 0 0.07281778 0 14.12664889-0.03640889 26.94257778-8.22840889 32.91363556-21.00792889l137.44355556-294.25664L989.50257778 531.09191111c13.50769778-2.07530667 24.68522667-11.54161778 29.01788444-24.46677333 4.29624889-12.92515555 0.98304-27.23384889-8.51968-36.95502223L785.94048 240.73102222l52.24675555-324.11192889c2.22094222-13.76256-3.64088889-27.59793778-15.0368711-35.60789333C816.92444445-123.46709333000001 809.60625778-125.65162667000004 802.25166222-125.65162667000004z"  horiz-adv-x="1024" />

    
    <glyph glyph-name="jieyueguanli" unicode="&#59008;" d="M853.333333 496.64h-93.866666v93.866667c0 10.24-6.826667 17.066667-17.066667 17.066666s-17.066667-6.826667-17.066667-17.066666v-93.866667H631.466667c-10.24 0-17.066667-6.826667-17.066667-17.066667s6.826667-17.066667 17.066667-17.066666h93.866666v-93.866667c0-10.24 6.826667-17.066667 17.066667-17.066667s17.066667 6.826667 17.066667 17.066667v93.866667H853.333333c10.24 0 17.066667 6.826667 17.066667 17.066666s-8.533333 17.066667-17.066667 17.066667zM930.133333 761.173333H646.826667c-54.613333 0-104.106667-29.013333-131.413334-73.386666-27.306667 44.373333-76.8 73.386667-131.413333 73.386666H102.4c-29.013333 0-51.2-22.186667-51.2-51.2v-631.466666c0-29.013333 22.186667-51.2 51.2-51.2h317.44c17.066667-37.546667 54.613333-63.146667 97.28-63.146667s80.213333 23.893333 97.28 63.146667h317.44c29.013333 0 51.2 22.186667 51.2 51.2v631.466666c-1.706667 27.306667-23.893333 51.2-52.906667 51.2z m17.066667-682.666666c0-10.24-6.826667-17.066667-17.066667-17.066667H600.746667c-6.826667 0-13.653333-5.12-17.066667-11.946667-10.24-30.72-37.546667-51.2-68.266667-51.2s-59.733333 20.48-68.266666 51.2c-1.706667 6.826667-8.533333 11.946667-17.066667 11.946667H102.4c-10.24 0-17.066667 6.826667-17.066667 17.066667v631.466666c0 10.24 6.826667 17.066667 17.066667 17.066667h283.306667c51.2 0 98.986667-34.133333 114.346666-83.626667v-363.52c0-10.24 6.826667-17.066667 17.066667-17.066666s17.066667 6.826667 17.066667 17.066666V643.413333c15.36 49.493333 61.44 83.626667 114.346666 83.626667h283.306667c10.24 0 17.066667-6.826667 17.066667-17.066667v-631.466666z"  horiz-adv-x="1024" />

    
    <glyph glyph-name="shouye" unicode="&#58883;" d="M879.932958 317.257478c0.004093 14.130821-11.445668 25.586723-25.574443 25.592863h-0.008187c-14.125705 0-25.578536-11.449762-25.582629-25.574443l-0.084935-263.184882c0-1.648545 0.157589-3.298113 0.475837-4.919028 0.36532-1.868555 1.245362-13.359249-3.643989-19.294419-4.301975-5.22602-13.937416-6.324026-21.263259-6.324026-45.522754 0-142.015316-0.010233-188.029256-0.014326l-1.100053 192.389559c1.067307 9.205653 2.892884 39.391109-15.331158 60.727023-7.838518 9.180071-22.339775 20.11818-46.8991 20.118179h-3.720737c-0.092097 0.002047-0.185218 0.008186-0.277316 0.008187h-0.008186c-0.002047 0-9.913781-0.004093-30.928376-0.00614-21.014595 0.002047-30.925306 0.00614-30.928376 0.00614h-0.008186c-0.093121 0-0.184195-0.00614-0.277316-0.008187h-3.720737c-24.559324 0-39.060582-10.938109-46.900123-20.118179-18.224042-21.335913-16.398465-51.521369-15.331158-60.727023l-1.100053-192.389559c-46.012917 0.004093-142.506502 0.014326-188.029256 0.014326-7.264443 0-16.835417 1.079587-21.172185 6.213509-4.696971 5.56064-4.258996 16.039285-3.707434 19.532849 0.376576 1.746782 0.448208 2.975771 0.448207 4.793162l-0.083911 263.182835c-0.004093 14.126728-11.456925 25.574443-25.582629 25.574443h-0.008186c-14.128775-0.00614-25.579559-11.462041-25.574443-25.590816l0.083911-261.1966c-1.282201-9.339706-3.143594-36.874802 14.833831-58.710088 9.377569-11.388363 27.531002-24.964553 60.762839-24.964553 60.987965 0 213.462483-0.018419 213.462482-0.018419h0.00307c14.070446 0 25.501788 11.363804 25.58263 25.436297l1.255595 219.564451c0.008186 1.490956-0.052189 2.614545-0.300851 4.072755-0.889252 6.42124-0.198521 17.874072 3.39021 22.011294 1.239223 1.428534 3.920282 2.153034 7.968477 2.153034l34.933592 0.002047 34.934615-0.002047c4.047172 0 6.729255-0.723477 7.968478-2.153034 3.588731-4.137223 4.278439-15.589031 3.39021-22.011294-0.24764-1.459233-0.310061-2.579752-0.300852-4.072755l1.256619-219.564451c0.079818-14.072493 11.512183-25.438343 25.584676-25.436297 0 0 152.474518 0.018419 213.462483 0.018419 33.232859 0 51.385269 13.577213 60.762838 24.964553 17.977425 21.837332 16.116033 49.372428 14.833832 58.710088l0.082888 261.194553zM989.12269 372.969282L621.741805 767.765535c-5.43375 6.295373-42.235898 46.52457-96.866068 48.378799-38.978717 1.339506-76.317077-16.618476-110.989726-53.327503-92.250962-97.673456-365.022166-386.811403-367.76667-389.719636-9.695817-10.277054-9.224073-26.467788 1.054004-36.163605 10.276031-9.69991 26.467788-9.224073 36.163605 1.052981 2.744504 2.908233 275.505476 292.033901 367.745181 389.695077 24.022089 25.43425 48.132182 37.975878 71.670248 37.338359 34.077086-0.95372 58.951588-29.178524 60.186717-30.607057 0.357134-0.440021 0.568958-0.669242 0.970094-1.103123l367.755414-395.197389a25.519184 25.519184 0 0 1 18.733648-8.154719 25.494625 25.494625 0 0 1 17.42177 6.853074c10.345615 9.629302 10.926853 25.813896 1.302668 36.158489z"  horiz-adv-x="1024" />

    
    <glyph glyph-name="jieyuejilu" unicode="&#59174;" d="M890.88 766.293333H580.266667c-29.013333 0-52.906667-17.066667-68.266667-39.253333-15.36 22.186667-39.253333 39.253333-68.266667 39.253333H133.12c-29.013333 0-51.2-22.186667-51.2-51.2v-622.933333c0-29.013333 22.186667-51.2 51.2-51.2h308.906667c8.533333-23.893333 32.426667-39.253333 58.026666-39.253333h22.186667c25.6 0 49.493333 17.066667 58.026667 39.253333h308.906666c29.013333 0 51.2 22.186667 51.2 51.2V715.093333c1.706667 29.013333-22.186667 51.2-49.493333 51.2z m17.066667-674.133333c0-10.24-6.826667-17.066667-17.066667-17.066667H568.32c-8.533333 0-15.36-6.826667-17.066667-15.36-1.706667-13.653333-13.653333-25.6-27.306666-25.6h-22.186667c-13.653333 0-25.6 10.24-27.306667 25.6-1.706667 8.533333-8.533333 15.36-17.066666 15.36h-324.266667c-10.24 0-17.066667 6.826667-17.066667 17.066667V715.093333c0 10.24 6.826667 17.066667 17.066667 17.066667H443.733333c29.013333 0 51.2-32.426667 51.2-59.733333 0-10.24 6.826667-17.066667 17.066667-17.066667s17.066667 6.826667 17.066667 17.066667c0 27.306667 22.186667 59.733333 51.2 59.733333h310.613333c10.24 0 17.066667-6.826667 17.066667-17.066667v-622.933333zM419.84 542.72H194.56c-10.24 0-17.066667-6.826667-17.066667-17.066667s6.826667-17.066667 17.066667-17.066666h225.28c10.24 0 17.066667 6.826667 17.066667 17.066666s-6.826667 17.066667-17.066667 17.066667zM366.933333 401.066667H194.56c-10.24 0-17.066667-6.826667-17.066667-17.066667s6.826667-17.066667 17.066667-17.066667h172.373333c10.24 0 17.066667 6.826667 17.066667 17.066667s-8.533333 17.066667-17.066667 17.066667zM366.933333 259.413333H194.56c-10.24 0-17.066667-6.826667-17.066667-17.066666s6.826667-17.066667 17.066667-17.066667h172.373333c10.24 0 17.066667 6.826667 17.066667 17.066667s-8.533333 17.066667-17.066667 17.066666z"  horiz-adv-x="1024" />

    
    <glyph glyph-name="huodong" unicode="&#58886;" d="M863.276 657.116h-30.562c15.495 26.254 22.298 51.296 20.122 74.522-1.801 19.435-11.024 47.24-44.817 69.399-28.022 18.414-64.052 22.927-104.025 12.952-64.823-16.258-141.539-72.156-191.986-139.71C461.533 741.829 384.874 797.732 320.05 813.99c-40.008 10.04-76.065 5.495-104.08-12.952-33.767-22.16-42.988-49.964-44.79-69.4-2.175-23.225 4.565-48.267 20.122-74.52H160.74c-46.275 0-83.94-37.652-83.94-83.919v-108.095c0-36.599 24.166-68.942 59.122-79.805-3.32-9.185-5.06-18.68-5.06-28.3v-324.291c0-46.235 37.704-83.907 83.99-83.907h594.406c46.281 0 83.923 37.667 83.923 83.907V356.998c0 9.68-1.673 19.21-4.994 28.332 34.907 10.925 59.013 43.268 59.013 79.778v108.06c0 46.265-37.644 83.948-83.924 83.948M809.26 8.563H541.893V381.17H809.26c13.326 0 24.133-10.863 24.133-24.172v-324.291c-0.002-13.314-10.809-24.144-24.133-24.144M574.813 657.116c42.52 49.001 98.334 87.507 143.659 98.865 23.538 5.894 42.799 4.278 56.748-4.908 14.816-9.724 17.453-18.396 18.043-24.948 2.358-24.014-23.422-56.39-35.596-69.01H574.813v0.001z m312.562-83.946v-108.067c0-13.312-10.772-24.135-24.1-24.135H541.894V597.324h321.383c13.32 0 24.1-10.846 24.1-24.154m-405.28-192v-372.607H214.851c-13.36 0-24.167 10.83-24.167 24.144V356.998c0 13.309 10.807 24.172 24.167 24.172h267.243zM230.752 726.125c0.59 6.55 3.26 15.224 18.015 24.948 13.856 9.186 33.11 10.88 56.782 4.908 45.069-11.297 100.822-49.802 143.437-98.865H266.289c-10.907 11.035-37.928 44.423-35.536 69.009M136.58 573.17c0 13.308 10.807 24.155 24.16 24.155h321.356v-156.357H160.74c-13.354 0-24.161 10.823-24.161 24.135V573.17z m0 0"  horiz-adv-x="1024" />

    
    <glyph glyph-name="tuijian" unicode="&#58891;" d="M543.791192 140.012606l-7.969616-0.522343-4.044283-0.272808c-6.799515-0.464162-13.222788-0.902465-19.714586-0.902465-6.493091 0-12.917657 0.438303-19.718465 0.902465l-4.041697 0.272808-7.963151 0.522343-139.914343-238.615273a210115.736566 210115.736566 0 0 1-122.989899 137.009132l-2.841859 3.162505-4.164525 0.858505c-75.076525 15.472485-150.142707 30.572606-183.418829 37.244121l151.77697 259.064242-3.134061 6.270707c-25.627152 51.25301-38.622384 105.865051-38.622383 162.319516 0.062061 98.637576 39.068444 191.36 109.834343 261.081212C317.68501 838.180202 411.867152 876.606061 512.062707 876.606061s194.371232-38.419394 265.179798-108.18198c70.75297-69.708283 109.716687-162.385455 109.716687-260.963556 0-56.590222-12.992646-111.198384-38.615919-162.309171l-3.145697-6.273293 151.796363-259.224566c-33.255434-6.706424-108.338424-21.885414-183.43305-37.360485l-4.165818-0.858505-2.841859-3.162505a214299.906586 214299.906586 0 0 1-122.980848-137.000081L543.791192 140.012606z m-309.346263-67.225859c44.452202-43.11402 91.305374-87.647677 91.781172-88.101494l11.817374-11.230384 100.743757 171.875555-16.872727 4.115394c-83.144404 20.279596-157.335273 68.571798-208.907636 135.983839l-11.69196 15.283717-109.628768-187.040323 16.01293-4.595071c-0.001293 0 63.182869-18.126869 126.745858-36.291233z m576.539152 212.774788c-51.664162-67.528404-125.851152-115.820606-208.893414-135.978666l-16.897293-4.101172 100.741171-171.87297 11.817374 11.196768c0.477091 0.453818 47.45697 44.984889 91.795394 88.10796 62.866101 17.842424 126.127838 36.116687 126.769131 36.301575l15.972849 4.615758-109.610667 187.011879-11.694545-15.281132zM512.062707 839.744646c-181.010101 0-328.272162-147.502545-328.272162-328.807434s147.262061-328.807434 328.272162-328.807434S840.333576 329.632323 840.333576 510.937212C840.195232 692.247273 692.931879 839.744646 512.062707 839.744646z m0-536.939313c-114.691879 0-208 93.306828-208 207.997414 0 114.690586 93.308121 207.998707 208 207.998708 114.690586 0 207.997414-93.308121 207.997414-207.998708 0-114.689293-93.306828-207.997414-207.997414-207.997414z m0 378.732606c-94.143354 0-170.735192-76.591838-170.735192-170.735192 0-94.142061 76.591838-170.733899 170.735192-170.733899 94.142061 0 170.733899 76.590545 170.733899 170.733899S606.204768 681.537939 512.062707 681.537939z"  horiz-adv-x="1024" />

    
    <glyph glyph-name="lingyupaiming" unicode="&#58922;" d="M981.8112 88.7808h-83.5584c0.2048 1.8432 0.4096 3.6864 0.4096 5.632V620.2368c0 23.2448-19.0464 42.2912-42.2912 42.2912H668.2624c-2.048 0-4.1984-0.2048-6.144-0.4096V853.7088C662.016 876.9536 643.072 896 619.8272 896H431.7184c-23.2448 0-42.2912-19.0464-42.2912-42.2912v-321.7408c-2.048 0.3072-4.096 0.4096-6.144 0.4096H195.1744c-23.2448 0-42.2912-19.0464-42.2912-42.2912v-394.752c0-2.2528 0.2048-4.5056 0.512-6.656H42.2912C19.0464 88.7808 0 69.83680000000004 0 46.591999999999985v-132.096c0-23.2448 19.0464-42.2912 42.2912-42.2912h939.52c23.2448 0 42.2912 19.0464 42.2912 42.2912v132.096c-0.1024 23.2448-19.1488 42.1888-42.2912 42.1888z m-318.976 531.456c0 2.8672 2.56 5.4272 5.4272 5.4272h188.1088c2.8672 0 5.4272-2.56 5.4272-5.4272v-525.824c0-2.8672-2.56-5.4272-5.4272-5.4272H668.2624c-2.8672 0-5.4272 2.56-5.4272 5.4272V620.2368z m-236.544 233.472c0 2.8672 2.56 5.4272 5.4272 5.4272h188.1088c2.8672 0 5.4272-2.56 5.4272-5.4272v-758.272c0-2.8672-2.56-5.4272-5.4272-5.4272H431.7184c-2.8672 0-5.4272 2.56-5.4272 5.4272V853.7088z m-236.544-363.52c0 2.8672 2.56 5.4272 5.4272 5.4272h188.1088c2.8672 0 5.4272-2.56 5.4272-5.4272v-394.752c0-2.8672-2.56-5.4272-5.4272-5.4272H195.1744c-2.8672 0-5.4272 2.56-5.4272 5.4272V490.1888zM987.136-85.50400000000002c0-2.8672-2.56-5.4272-5.4272-5.4272H42.2912c-2.8672 0-5.4272 2.56-5.4272 5.4272v132.096c0 2.8672 2.56 5.4272 5.4272 5.4272h939.52c2.8672 0 5.4272-2.56 5.4272-5.4272v-132.096z"  horiz-adv-x="1024" />

    
    <glyph glyph-name="portal" unicode="&#58880;" d="M241.85575348 500.74146133h-1.74762666v-0.15534458a155.49993718 155.49993718 0 0 0-155.3445926 155.30575643A155.49993718 155.49993718 0 0 0 240.14696297 811.1976296299999a155.46110103 155.46110103 0 0 0 155.30575644-155.22808415v-155.22808415H241.89458963z m231.23042607 155.22808415a233.24990578 233.24990578 0 0 1-233.01688888 232.90038044A233.24990578 233.24990578 0 0 1 7.13007408 655.89187318c0-128.46997808 104.54691082-233.01688889 232.97805274-233.01688888 1.16508445 0 2.33016889 0.19418075 3.49525333 0.19418073h151.84933926v-0.11650844h77.67229629v233.01688889h-0.03883615zM395.41388325 267.41388325V112.14696297a155.46110103 155.46110103 0 0 0-155.30575643-155.22808415A155.49993718 155.49993718 0 0 0 84.80237037 112.26347140999997a155.46110103 155.46110103 0 0 0 155.2669203 155.30575644v-0.1553446h155.34459258z m77.6722963-155.22808414v233.01688889h-77.6722963v-0.11650845h-151.84933925c-1.16508445 0-2.29133275 0.19418075-3.45641718 0.19418075a233.24990578 233.24990578 0 0 1-232.97805274-233.01688889 233.24990578 233.24990578 0 0 1 233.01688889-233.01688889 233.28874192 233.28874192 0 0 1 232.93921658 232.93921659zM628.50844445 500.58611675V655.8142008899999a155.46110103 155.46110103 0 0 0 155.2669203 155.22808414 155.49993718 155.49993718 0 0 0 155.34459258-155.34459258 155.46110103 155.46110103 0 0 0-155.30575644-155.2669203v0.1553446h-155.34459259z m-77.6722963 155.22808414v-233.01688889h77.6722963v0.11650845h151.84933925c1.16508445 0 2.25249659-0.19418075 3.41758105-0.19418075a233.24990578 233.24990578 0 0 1 233.01688888 233.01688889 233.24990578 233.24990578 0 0 1-233.01688888 232.97805274A233.28874192 233.28874192 0 0 1 550.83614815 655.8142008899999zM782.10541037 267.41388325H783.85303703v0.1553446a155.49993718 155.49993718 0 0 0 155.30575645-155.30575644 155.49993718 155.49993718 0 0 0-155.34459259-155.30575644 155.46110103 155.46110103 0 0 0-155.2669203 155.22808414H628.50844445v155.22808414h153.59696592zM550.83614815 112.18579910999995A233.24990578 233.24990578 0 0 1 783.85303703-120.71458132999999a233.24990578 233.24990578 0 0 1 232.97805275 233.01688888c0 128.43114192-104.54691082 233.01688889-233.01688889 233.0168889-1.16508445 0-2.33016889-0.23301689-3.49525334-0.2330169H628.50844445v0.11650845h-77.6722963v-233.01688889h0.0776723z"  horiz-adv-x="1024" />

    
    <glyph glyph-name="huiyuan1" unicode="&#58885;" d="M271.42143999999996 228.38954666666666c-39.80515555555555-61.66186666666667-63.714417777777776-138.15466666666666-71.06332444444443-227.35985777777773-1.427911111111111-17.328355555555557 11.466524444444444-32.53134222222222 28.790328888888887-33.95584 0.8817777777777778-0.07281777777777779 1.755591111111111-0.10922666666666667 2.6191644444444444-0.10922666666666667 16.219022222222222 0 29.984995555555553 12.447288888888888 31.34008888888889 28.897279999999995 6.4273066666666665 78.04472888888888 26.707057777777777 144.3009422222222 60.271502222222225 196.9265777777778 26.41578666666666 41.41283555555556 61.27502222222222 74.76451555555556 103.6037688888889 99.12661333333334 73.55392 42.33443555555555 145.50357333333335 43.262862222222225 146.22264888888887 43.26741333333333 1.8363733333333334 0 3.6295111111111105 0.16383999999999999 5.379413333333333 0.4630755555555555 4.929991111111111-0.2958222222222222 9.896391111111111-0.46762666666666663 14.904888888888888-0.46762666666666663 134.61617777777778 0 244.13866666666667 109.52590222222223 244.13866666666667 244.14321777777778 0 134.62186666666665-109.51793777777777 244.14208-244.13866666666667 244.14208-134.62186666666665 0-244.14208-109.52021333333332-244.14208-244.14208 0-84.96583111111111 43.63719111111111-159.91694222222222 109.66584888888887-203.66563555555555-19.319466666666667-6.88128-39.88707555555555-15.868586666666666-60.68906666666667-27.607039999999998-51.83715555555556-29.257955555555554-94.53454222222223-69.51822222222222-126.9031822222222-119.65895111111111zM774.6673777777778 579.3200355555555c0-99.9025777777778-81.27829333333334-181.18428444444444-181.17973333333333-181.18428444444444-99.9059911111111 0-181.18314666666666 81.28170666666665-181.18314666666666 181.18428444444444 0 99.90712888888888 81.27715555555555 181.18428444444444 181.18428444444444 181.18428444444444 99.9025777777778 0 181.17973333333333-81.27715555555555 181.17973333333333-181.18428444444444z m0 0M10.036337777777817 74.97500444444438c-1.0581333333333334-17.35111111111111 12.153742222222224-32.27761777777778 29.508266666666664-33.336888888888886 0.6508088888888889-0.03640888888888889 1.30048-0.05916444444444444 1.9421866666666663-0.05916444444444444 16.509155555555555 0 30.37639111111111 12.86599111111111 31.391288888888887 29.56629333333333 6.326044444444444 103.88252444444444 46.07089777777777 180.6347377777778 118.11612444444445 228.12103111111114 52.85660444444444 34.83875555555555 104.80981333333332 40.675555555555555 105.31839999999998 40.72334222222222 1.5246222222222223 0.14563555555555557 3.015111111111111 0.40504888888888885 4.461226666666666 0.7543466666666667 14.384924444444444-4.139235555555556 30.094222222222214-6.136035555555555 41.86453333333334 2.914986666666666a31.352604444444438 31.352604444444438 0 0 1 11.874986666666667 19.862186666666666c2.801208888888889 17.123555555555555-8.772266666666667 33.277724444444445-25.873066666666663 36.135822222222224-33.383537777777775 5.583075555555555-64.05688888888888 26.036906666666667-88.17322666666665 49.03139555555556-30.552746666666668 29.124835555555553-46.42133333333333 71.94510222222222-46.42133333333333 113.83694222222222 0 16.72305777777778 3.46567111111111 35.14709333333333 8.180622222222222 51.13287111111111 17.105351111111112 58.006186666666665 71.68682666666666 104.61411555555556 131.40650666666667 114.12935111111108 17.14631111111111 2.7318044444444443 28.871111111111105 18.83704888888889 26.165475555555552 35.99246222222222-2.7010844444444446 17.155413333333332-18.747164444444444 28.87907555555556-35.91623111111111 26.206435555555558-26.461297777777776-4.1255822222222225-52.388977777777775-12.894435555555557-75.70659555555557-26.038044444444445-7.7858133333333335-4.388408888888889-15.2576-9.305884444444445-22.4256-14.635235555555553a233.07377777777776 233.07377777777776 0 0 1-7.122488888888888-5.512533333333333c-26.983537777777777-21.70311111111111-48.84138666666666-49.87335111111111-64.32767999999999-80.76743111111111-15.362275555555556-30.65059555555555-23.212942222222225-66.18794666666666-23.212942222222225-100.50787555555556 0-72.40021333333334 33.7408-137.05898666666664 86.31637333333333-179.0976-18.859804444444443-7.421724444444443-39.85294222222222-17.618488888888887-61.056568888888876-31.59495111111111-61.519644444444445-40.54698666666666-136.84963555555555-121.49759999999999-146.31025777777776-276.8577422222222z m0 0M941.8501688888889 248.2801777777779L800.9534577777777 67.83431111111099 660.2433422222223 248.76828444444448c-1.4370133333333333 2.2596266666666667-1.8716444444444444 2.2596266666666667-3.910542222222222 2.2596266666666667h-68.65578666666667v-31.72124444444444h1.6509155555555557c12.977493333333335 0 17.790293333333334-3.376924444444444 23.116231111111112-10.484622222222221 0.5233777777777778-0.711111111111111 1.1377777777777778-1.5257599999999998 2.3597511111111107-3.0378666666666665 30.947555555555553-42.075022222222216 152.23011555555556-189.46616888888886 186.45902222222222-235.3709511111111C835.4850133333333 16.349866666666685 956.686791111111 163.8422755555555 988.0462222222222 206.35989333333328c0.7566222222222223 0.9033955555555555 1.3482666666666667 1.704391111111111 1.868231111111111 2.405262222222222 5.361208888888888 7.1429688888888885 10.18311111111111 10.540373333333331 23.10485333333333 10.540373333333331h1.5621688888888887V251.08479999999997H946.1759999999999c-1.9285333333333334 0.001137777777777778-2.5110755555555553 0.001137777777777778-4.325831111111111-2.804622222222222z m0 0"  horiz-adv-x="1024" />

    
    <glyph glyph-name="paiming" unicode="&#58935;" d="M33.6-53.824c-18.496 0-33.6 15.04-33.6 33.6V788.224c0 18.56 15.104 33.664 33.6 33.664 18.56 0 33.664-15.104 33.664-33.664V13.44h923.072c18.56 0 33.6-15.104 33.6-33.6 0-18.56-15.04-33.6-33.6-33.6H33.6v-0.064z m109.056 181.696a33.3 33.3 0 0 0-20.096 6.72c-14.848 11.136-17.92 32.256-6.784 47.104l220.608 294.72c6.464 8.576 16.256 13.504 27.008 13.504a33.824 33.824 0 0 0 18.752-5.696l198.4-133.632L930.176 629.12c6.016 4.8 13.248 7.296 20.928 7.296 10.304 0 19.968-4.608 26.304-12.672 5.632-7.04 8.128-15.808 7.104-24.768s-5.44-16.96-12.416-22.528L603.072 282.56c-5.888-4.736-13.312-7.296-20.928-7.296a33.876 33.876 0 0 0-18.816 5.696l-192.32 129.536L169.6 141.312c-6.464-8.512-16.256-13.44-26.944-13.44z m0 0"  horiz-adv-x="1025" />

    
    <glyph glyph-name="yuding" unicode="&#58960;" d="M566.352 342.624c22.848 22.848 22.848 59.872 0 82.704-22.848 22.88-285.776 203.104-285.776 203.104s180.24-262.96 203.104-285.808c22.8-22.832 59.856-22.832 82.672 0zM549.36 845.744v1.248h-48.736V627.68c0-13.456 10.944-24.368 24.384-24.368 13.472 0 24.368 10.928 24.368 24.368V797.072C766.448 784.336 939.232 604.192 939.232 384c0-228.416-185.808-414.24-414.24-414.24S110.736 155.584 110.736 384c0 120.192 51.712 233.424 142.064 312.24-11.472 11.472-22.928 22.96-34.384 34.416C122.592 645.824 62 522.048 62 384c0-255.696 207.328-463.008 463.008-463.008C780.736-79.008 988 128.304 988 384c0 247.488-194.32 449.04-438.64 461.744z"  horiz-adv-x="1024" />

    
    <glyph glyph-name="shoucang1" unicode="&#58881;" d="M707.584 802.816c-77.312 0-148.992-38.912-196.608-102.912-47.104 64-119.296 102.912-196.608 102.912-139.264 0-252.416-123.904-252.416-275.968 0-90.624 40.448-154.624 73.216-205.824 94.72-148.992 333.312-333.824 343.552-341.504 9.728-7.68 20.992-11.264 32.256-11.264s22.528 3.584 32.256 11.264c10.24 7.68 248.32 193.024 343.552 341.504 32.768 51.2 73.216 115.2 73.216 205.824 0 152.064-113.152 275.968-252.416 275.968z m114.176-480.256c-87.552-122.88-272.896-263.168-282.112-269.824-8.704-6.656-18.944-10.24-28.672-10.24-10.24 0-19.968 3.072-28.672 10.24-9.216 6.656-190.976 148.48-282.112 274.944-29.184 46.08-75.776 103.424-75.776 184.32 0 136.192 75.776 231.936 200.192 231.936 69.12 0 144.384-66.048 186.368-123.392 42.496 57.344 117.248 123.392 186.368 123.392 124.928 0 205.824-95.744 205.824-231.936 0-80.896-51.712-143.872-81.408-189.44z"  horiz-adv-x="1024" />

    
    <glyph glyph-name="shoucang" unicode="&#58909;" d="M727.908848 847.592727c-85.488485 0-164.770909-43.008-217.398303-113.788121-52.099879 70.749091-131.909818 113.788121-217.398303 113.788121-153.972364 0-279.117576-136.998788-279.117575-305.120969 0-100.196848 44.714667-170.97697 80.95806-227.576243 104.727273-164.739879 368.515879-369.105455 379.87297-377.607757a57.157818 57.157818 0 0 1 71.307636 0c11.29503 8.502303 274.556121 213.426424 379.87297 377.607757 36.212364 56.599273 80.92703 127.379394 80.92703 227.576243 0.062061 168.153212-125.052121 305.12097-279.024485 305.120969z m126.200243-530.990545c-96.783515-135.881697-301.707636-290.971152-311.916606-298.325334-9.619394-7.354182-20.945455-11.326061-31.68194-11.32606-11.326061 0-22.062545 3.382303-31.712969 11.32606-10.20897 7.354182-211.161212 164.150303-311.916606 303.972849-32.271515 50.982788-83.781818 114.377697-83.781818 203.80703 0 150.590061 83.781818 256.465455 221.339151 256.465455 76.427636 0 159.650909-73.045333 206.072242-136.440243 46.979879 63.394909 129.644606 136.440242 206.072243 136.440243 138.115879 0 227.576242-105.875394 227.576242-256.465455 0-89.429333-57.188848-159.092364-90.049939-209.454545z"  horiz-adv-x="1024" />

    
    <glyph glyph-name="tushuzulin" unicode="&#58882;" d="M512 896C371.2 896 240.64 839.68 143.36 737.28c-5.12-5.12-5.12-12.8 0-17.92 5.12-5.12 12.8-5.12 17.92 0C253.44 816.64 378.88 870.4 512 870.4c268.8 0 486.4-217.6 486.4-486.4s-217.6-486.4-486.4-486.4S25.6 115.20000000000005 25.6 384c0 87.04 23.04 174.08 69.12 248.32 2.56 5.12 2.56 12.8-5.12 17.92-5.12 2.56-12.8 2.56-17.92-5.12C25.6 565.76 0 476.16 0 384c0-281.6 230.4-512 512-512s512 230.4 512 512S793.6 896 512 896zM317.44 156.15999999999997c25.6 17.92 53.76 28.16 87.04 28.16 33.28 0 61.44-10.24 87.04-28.16l5.12-2.56c2.56 0 2.56-2.56 5.12-2.56 0 0 2.56 0 5.12-2.56h12.8c2.56 0 5.12 0 7.68 2.56h2.56c2.56 0 2.56 0 5.12 2.56l5.12 2.56c25.6 17.92 53.76 28.16 87.04 28.16 33.28 0 61.44-10.24 87.04-28.16 7.68-5.12 15.36-7.68 23.04-7.68 5.12 0 12.8 2.56 17.92 5.12 12.8 7.68 20.48 20.48 20.48 33.28V542.72c0 12.8-5.12 25.6-15.36 30.72-38.4 28.16-84.48 43.52-130.56 43.52-40.96 0-76.8-10.24-110.08-28.16-33.28 17.92-69.12 28.16-110.08 28.16-46.08 0-92.16-15.36-130.56-43.52-10.24-7.68-15.36-20.48-15.36-30.72v-355.84c0-15.36 7.68-28.16 20.48-33.28 5.12-7.68 20.48-5.12 33.28 2.56z m-17.92 386.56c30.72 23.04 66.56 33.28 104.96 33.28 35.84 0 69.12-10.24 97.28-28.16l12.8-7.68 12.8 7.68c28.16 17.92 61.44 28.16 97.28 28.16 38.4 0 74.24-12.8 104.96-33.28v-345.6c-30.72 20.48-66.56 30.72-104.96 30.72-40.96 0-76.8-10.24-110.08-33.28-30.72 20.48-69.12 33.28-110.08 33.28-38.4 0-74.24-10.24-104.96-30.72V542.72zM504.32 524.8h15.36v-289.28h-15.36z"  horiz-adv-x="1024" />

    


  </font>
</defs>
</svg>
